<?xml version="1.0" encoding="utf-8"?>
<!-- Generator: Adobe Illustrator 15.0.0, SVG Export Plug-In . SVG Version: 6.00 Build 0)  -->
<!DOCTYPE svg PUBLIC "-//W3C//DTD SVG 1.1//EN" "http://www.w3.org/Graphics/SVG/1.1/DTD/svg11.dtd">
<svg version="1.1" id="Vrstva_1" xmlns="http://www.w3.org/2000/svg" xmlns:xlink="http://www.w3.org/1999/xlink" x="0px" y="0px"
	 width="251.5px" height="62.5px" viewBox="0 0 251.5 62.5" enable-background="new 0 0 251.5 62.5" xml:space="preserve">
<g>
	<g>
		<g>
			<path fill="none" stroke="#CFB07B" stroke-width="1.596" stroke-miterlimit="10" d="M9.952,47.896
				c1.33-1.326,3.497-1.333,4.832,0.002s1.33,3.504,0.002,4.832c-1.337,1.337-3.502,1.338-4.834,0.004
				C8.615,51.397,8.615,49.232,9.952,47.896z"/>
		</g>
		
			<line fill="none" stroke="#CFB07B" stroke-width="1.596" stroke-miterlimit="10" x1="20.138" y1="51.895" x2="13.941" y2="58.091"/>
		
			<line fill="none" stroke="#CFB07B" stroke-width="1.596" stroke-miterlimit="10" x1="10.787" y1="42.544" x2="4.591" y2="48.739"/>
		<g>
			<path fill="none" stroke="#CFB07B" stroke-width="1.596" stroke-miterlimit="10" d="M45.742,12.105
				c1.33-1.326,3.498-1.333,4.833,0.002c1.334,1.334,1.33,3.504,0.001,4.832c-1.336,1.337-3.501,1.337-4.834,0.004
				C44.405,15.607,44.405,13.442,45.742,12.105z"/>
		</g>
		<line fill="none" stroke="#CFB07B" stroke-width="1.596" stroke-miterlimit="10" x1="55.929" y1="16.104" x2="49.732" y2="22.3"/>
		
			<line fill="none" stroke="#CFB07B" stroke-width="1.596" stroke-miterlimit="10" x1="46.578" y1="6.753" x2="40.382" y2="12.949"/>
	</g>
	<g>
		<g>
			<path fill="none" stroke="#CFB07B" stroke-width="1.596" stroke-miterlimit="10" d="M26.841,57.724
				c0.003-1.879,1.531-3.416,3.418-3.416s3.418,1.537,3.418,3.416c0,1.891-1.531,3.421-3.415,3.422
				C28.372,61.145,26.841,59.614,26.841,57.724z"/>
		</g>
		
			<line fill="none" stroke="#CFB07B" stroke-width="1.596" stroke-miterlimit="10" x1="36.872" y1="53.349" x2="36.872" y2="62.11"/>
		
			<line fill="none" stroke="#CFB07B" stroke-width="1.596" stroke-miterlimit="10" x1="23.647" y1="53.349" x2="23.648" y2="62.11"/>
		<g>
			<path fill="none" stroke="#CFB07B" stroke-width="1.596" stroke-miterlimit="10" d="M26.841,7.108
				c0.003-1.878,1.53-3.416,3.418-3.416c1.887,0,3.418,1.537,3.418,3.416c0,1.891-1.531,3.422-3.415,3.422
				C28.372,10.53,26.841,8.999,26.841,7.108z"/>
		</g>
		
			<line fill="none" stroke="#CFB07B" stroke-width="1.596" stroke-miterlimit="10" x1="36.872" y1="2.732" x2="36.872" y2="11.495"/>
		
			<line fill="none" stroke="#CFB07B" stroke-width="1.596" stroke-miterlimit="10" x1="23.648" y1="2.732" x2="23.647" y2="11.495"/>
	</g>
	<g>
		<g>
			<path fill="none" stroke="#0F265C" stroke-width="1.596" stroke-miterlimit="10" d="M45.733,52.73
				c-1.326-1.331-1.333-3.498,0.002-4.833s3.504-1.33,4.832-0.002c1.337,1.338,1.337,3.502,0.005,4.834
				C49.234,54.067,47.07,54.067,45.733,52.73z"/>
		</g>
		
			<line fill="none" stroke="#0F265C" stroke-width="1.596" stroke-miterlimit="10" x1="49.732" y1="42.544" x2="55.929" y2="48.739"/>
		
			<line fill="none" stroke="#0F265C" stroke-width="1.596" stroke-miterlimit="10" x1="40.382" y1="51.895" x2="46.577" y2="58.091"/>
		<g>
			<path fill="none" stroke="#CFB07B" stroke-width="1.596" stroke-miterlimit="10" d="M9.942,16.939
				c-1.326-1.331-1.333-3.498,0.002-4.832c1.335-1.335,3.504-1.331,4.833-0.003c1.337,1.337,1.337,3.502,0.004,4.835
				C13.444,18.276,11.28,18.276,9.942,16.939z"/>
		</g>
		
			<line fill="none" stroke="#CFB07B" stroke-width="1.596" stroke-miterlimit="10" x1="13.941" y1="6.753" x2="20.138" y2="12.949"/>
		<line fill="none" stroke="#CFB07B" stroke-width="1.596" stroke-miterlimit="10" x1="4.591" y1="16.104" x2="10.787" y2="22.3"/>
	</g>
	<g>
		<g>
			<path fill="none" stroke="#CFB07B" stroke-width="1.596" stroke-miterlimit="10" d="M55.561,35.84
				c-1.878-0.003-3.416-1.53-3.416-3.418c0-1.888,1.537-3.418,3.416-3.418c1.891,0,3.421,1.531,3.421,3.415
				C58.982,34.31,57.452,35.84,55.561,35.84z"/>
		</g>
		<line fill="none" stroke="#CFB07B" stroke-width="1.596" stroke-miterlimit="10" x1="51.187" y1="25.81" x2="59.949" y2="25.81"/>
		
			<line fill="none" stroke="#CFB07B" stroke-width="1.596" stroke-miterlimit="10" x1="51.187" y1="39.034" x2="59.949" y2="39.034"/>
		<g>
			<path fill="none" stroke="#CFB07B" stroke-width="1.596" stroke-miterlimit="10" d="M4.946,35.84
				c-1.878-0.003-3.416-1.53-3.416-3.418c0-1.888,1.538-3.418,3.416-3.418c1.891,0,3.421,1.53,3.421,3.415
				C8.367,34.31,6.837,35.84,4.946,35.84z"/>
		</g>
		<line fill="none" stroke="#CFB07B" stroke-width="1.596" stroke-miterlimit="10" x1="0.571" y1="25.81" x2="9.333" y2="25.81"/>
		<line fill="none" stroke="#CFB07B" stroke-width="1.596" stroke-miterlimit="10" x1="0.571" y1="39.034" x2="9.333" y2="39.034"/>
	</g>
</g>
<g>
	<line fill="none" stroke="#0F265C" stroke-width="1.596" stroke-miterlimit="10" x1="82.026" y1="60.93" x2="82.026" y2="4.022"/>
</g>
<g>
	<g>
		<path fill="#0F265C" d="M115.193,13.522h1.9c-0.359,3.083-2.302,5.237-6.145,5.237c-3.801,0-6.504-2.745-6.504-7.37
			c0-4.477,2.767-7.37,6.504-7.37c3.759,0,5.829,2.154,6.145,5.301h-1.9c-0.253-2.091-1.5-3.653-4.224-3.653
			c-2.598,0-4.646,2.175-4.646,5.723c0,3.632,2.006,5.723,4.646,5.723C113.715,17.112,114.94,15.549,115.193,13.522z M109.766,3.47
			l-1.795-2.725h1.542l1.457,1.5l1.457-1.5h1.542l-1.774,2.725H109.766z"/>
		<path fill="#0F265C" d="M128.924,13.945h-7.729c0.147,1.964,1.267,3.21,3.083,3.21s2.513-0.951,2.703-1.795h1.879
			c-0.401,1.879-1.837,3.379-4.604,3.379c-3.231,0-4.984-2.217-4.984-5.258c0-3.104,2.048-5.301,4.941-5.301
			c2.894,0,4.709,1.964,4.709,5.301V13.945z M121.237,12.572h5.808c-0.232-1.858-1.246-2.809-2.809-2.809
			C122.652,9.763,121.533,10.84,121.237,12.572z"/>
		<path fill="#0F265C" d="M139.339,15.824c0,1.71-1.478,2.914-4.139,2.914c-2.851,0-4.076-1.14-4.118-3.146l1.71,0.021
			c0.105,0.993,0.739,1.542,2.428,1.542c1.605,0,2.281-0.549,2.281-1.331c0-2.408-6.146-0.697-6.146-4.73
			c0-1.71,1.457-2.915,3.97-2.915c2.492,0,3.78,1.141,3.865,3.146l-1.731-0.021c-0.085-1.014-0.866-1.542-2.176-1.542
			c-1.415,0-2.09,0.507-2.09,1.331C133.194,13.459,139.339,11.664,139.339,15.824z"/>
		<path fill="#0F265C" d="M145.593,14.008l-1.542,1.689v2.936h-1.858V3.639h1.858v9.566l4.456-4.921h2.345l-4.055,4.435l4.455,5.913
			h-2.175L145.593,14.008z"/>
		<path fill="#0F265C" d="M161.772,8.285v10.074c0,2.619-1.479,4.498-4.878,4.498c-1.373,0-2.365-0.063-3.422-0.169v-1.584
			c1.035,0.106,2.07,0.169,3.4,0.169c2.344,0,3.083-1.267,3.083-2.914v-1.267c-0.634,0.95-1.71,1.647-3.21,1.647
			c-2.26,0-3.653-1.436-3.653-3.696V8.285h1.88v6.483c0,1.521,0.823,2.387,2.322,2.387c1.5,0,2.619-1.056,2.619-2.851V8.285H161.772
			z M158.034,6.701h-1.521l1.099-3.379h2.344L158.034,6.701z"/>
		<path fill="#0F265C" d="M117.305,32.228v7.539h-1.436v-2.513c-0.866,1.542-2.429,2.64-4.878,2.64
			c-3.886,0-6.546-2.787-6.546-7.455c0-4.329,2.724-7.286,6.779-7.286c3.738,0,5.723,2.133,6.019,4.878h-1.9
			c-0.253-1.689-1.394-3.231-4.097-3.231c-2.957,0-4.92,2.26-4.92,5.639c0,3.696,1.964,5.808,4.688,5.808
			c2.936,0,4.562-2.07,4.752-4.013v-0.422h-4.562v-1.584H117.305z"/>
		<path fill="#0F265C" d="M128.819,33.389v6.377h-1.837l-0.042-1.52c-0.401,0.591-1.394,1.625-3.59,1.625
			c-2.344,0-3.505-1.182-3.505-2.829c0-2.239,2.091-3.147,4.963-3.147h2.154v-0.591c0-1.563-0.887-2.408-2.555-2.408
			c-1.436,0-2.365,0.633-2.513,1.943h-1.816c0.126-2.154,1.858-3.527,4.393-3.527C127.341,29.313,128.819,30.813,128.819,33.389z
			 M126.96,35.966v-0.718h-2.154c-2.112,0-3.063,0.57-3.063,1.732c0,0.845,0.591,1.395,1.922,1.395
			C125.841,38.374,126.96,36.916,126.96,35.966z"/>
		<path fill="#0F265C" d="M139.762,36.958c0,1.711-1.479,2.914-4.14,2.914c-2.851,0-4.076-1.14-4.118-3.146l1.711,0.021
			c0.105,0.992,0.739,1.541,2.429,1.541c1.604,0,2.28-0.549,2.28-1.33c0-2.407-6.145-0.697-6.145-4.73
			c0-1.711,1.457-2.915,3.97-2.915c2.492,0,3.78,1.141,3.864,3.147l-1.731-0.021c-0.085-1.014-0.866-1.542-2.175-1.542
			c-1.415,0-2.091,0.507-2.091,1.331C133.616,34.593,139.762,32.798,139.762,36.958z"/>
		<path fill="#0F265C" d="M148.486,38.077v1.627c-0.508,0.042-1.014,0.063-1.352,0.063c-2.556,0-4.034-1.182-4.034-3.928v-4.815
			h-1.563v-1.604h1.668v-3.083h1.753v3.083h3.357v1.563h-3.357v4.857c0,1.521,0.486,2.303,2.302,2.303
			C147.557,38.142,148,38.12,148.486,38.077z"/>
		<path fill="#0F265C" d="M155.985,29.377l-0.021,1.837c-0.085-0.042-0.274-0.084-0.697-0.084c-1.309,0-2.534,1.098-2.534,3.189
			v5.448h-1.858V29.419h1.753l0.043,1.668c0.506-1.014,1.372-1.774,2.724-1.774C155.668,29.313,155.858,29.356,155.985,29.377z"/>
		<path fill="#0F265C" d="M167.602,34.572c0,3.126-2.027,5.3-5.131,5.3c-3.063,0-5.111-2.048-5.111-5.173
			c0-3.146,2.049-5.385,5.111-5.385C165.574,29.313,167.602,31.425,167.602,34.572z M159.261,34.635c0,2.175,1.288,3.653,3.21,3.653
			c1.964,0,3.23-1.478,3.23-3.653c0-2.196-1.267-3.738-3.23-3.738C160.549,30.897,159.261,32.439,159.261,34.635z"/>
		<path fill="#0F265C" d="M179.368,33.242v6.525h-1.879v-6.145c0-1.753-0.824-2.724-2.365-2.724c-1.669,0-2.788,1.098-2.788,2.851
			v6.018h-1.858V29.419h1.753l0.085,1.542c0.654-0.951,1.753-1.647,3.315-1.647C177.911,29.313,179.368,30.708,179.368,33.242z"/>
		<path fill="#0F265C" d="M192.381,34.572c0,3.126-2.027,5.3-5.132,5.3c-3.062,0-5.11-2.048-5.11-5.173
			c0-3.146,2.049-5.385,5.11-5.385C190.354,29.313,192.381,31.425,192.381,34.572z M184.039,34.635c0,2.175,1.288,3.653,3.21,3.653
			c1.964,0,3.231-1.478,3.231-3.653c0-2.196-1.268-3.738-3.231-3.738C185.327,30.897,184.039,32.439,184.039,34.635z"/>
		<path fill="#0F265C" d="M210.842,33.178v6.588h-1.88v-6.208c0-1.731-0.887-2.661-2.344-2.661c-1.584,0-2.64,1.056-2.64,2.851
			v6.018h-1.88v-6.208c0-1.731-0.887-2.661-2.344-2.661c-1.584,0-2.64,1.056-2.64,2.851v6.018h-1.858V29.419h1.753l0.084,1.499
			c0.634-0.929,1.689-1.605,3.168-1.605c1.668,0,2.851,0.782,3.4,2.112c0.569-1.204,1.731-2.112,3.463-2.112
			C209.427,29.313,210.842,30.813,210.842,33.178z"/>
		<path fill="#0F265C" d="M215.24,27.307c-0.719,0-1.289-0.528-1.289-1.267c0-0.718,0.57-1.268,1.289-1.268
			c0.718,0,1.288,0.549,1.288,1.268C216.528,26.779,215.958,27.307,215.24,27.307z M214.247,29.419h1.88v10.347h-1.88V29.419z"/>
		<path fill="#0F265C" d="M219,34.635c0-3.104,2.007-5.322,4.941-5.322c2.703,0,4.287,1.521,4.563,3.886h-1.985
			c-0.212-1.288-0.993-2.302-2.556-2.302c-1.858,0-3.063,1.457-3.063,3.696c0,2.217,1.099,3.695,3.021,3.695
			c1.604,0,2.386-1.014,2.598-2.238h1.985c-0.317,2.303-1.922,3.822-4.668,3.822C220.689,39.872,219,37.677,219,34.635z"/>
		<path fill="#0F265C" d="M234.652,35.142l-1.542,1.689v2.936h-1.858V24.773h1.858v9.567l4.456-4.92h2.344l-4.055,4.435l4.456,5.913
			h-2.175L234.652,35.142z"/>
		<path fill="#0F265C" d="M250.832,29.419v10.074c0,2.618-1.479,4.498-4.879,4.498c-1.372,0-2.365-0.064-3.421-0.17v-1.584
			c1.035,0.105,2.069,0.17,3.4,0.17c2.344,0,3.083-1.268,3.083-2.914v-1.268c-0.634,0.95-1.711,1.646-3.21,1.646
			c-2.26,0-3.653-1.436-3.653-3.695v-6.757h1.879v6.483c0,1.521,0.824,2.386,2.323,2.386s2.619-1.055,2.619-2.85v-6.019H250.832z
			 M247.094,27.835h-1.521l1.099-3.379h2.344L247.094,27.835z"/>
		<path fill="#0F265C" d="M105.331,46.415h1.858v14.486h-1.858V46.415z"/>
		<path fill="#0F265C" d="M119.968,54.376v6.525h-1.88v-6.145c0-1.754-0.823-2.725-2.365-2.725c-1.668,0-2.787,1.098-2.787,2.852
			v6.018h-1.858V50.554h1.752l0.084,1.542c0.655-0.95,1.753-1.647,3.315-1.647C118.511,50.448,119.968,51.843,119.968,54.376z"/>
		<path fill="#0F265C" d="M130.91,58.093c0,1.711-1.478,2.914-4.139,2.914c-2.851,0-4.076-1.14-4.118-3.146l1.71,0.021
			c0.105,0.992,0.739,1.541,2.429,1.541c1.605,0,2.281-0.549,2.281-1.33c0-2.407-6.146-0.697-6.146-4.73
			c0-1.711,1.457-2.914,3.97-2.914c2.492,0,3.78,1.141,3.865,3.146l-1.732-0.021c-0.084-1.014-0.866-1.541-2.175-1.541
			c-1.415,0-2.09,0.507-2.09,1.33C124.765,55.728,130.91,53.933,130.91,58.093z"/>
		<path fill="#0F265C" d="M139.635,59.212v1.627c-0.507,0.042-1.014,0.063-1.352,0.063c-2.555,0-4.033-1.182-4.033-3.928v-4.814
			h-1.563v-1.605h1.668v-3.083h1.753v3.083h3.357v1.563h-3.357v4.857c0,1.521,0.485,2.303,2.302,2.303
			C138.706,59.276,139.149,59.255,139.635,59.212z"/>
		<path fill="#0F265C" d="M143.016,48.442c-0.718,0-1.288-0.528-1.288-1.268c0-0.718,0.57-1.268,1.288-1.268
			c0.719,0,1.289,0.55,1.289,1.268C144.305,47.914,143.734,48.442,143.016,48.442z M142.023,50.554h1.88v10.348h-1.88V50.554z"/>
		<path fill="#0F265C" d="M153.28,59.212v1.627c-0.507,0.042-1.014,0.063-1.352,0.063c-2.555,0-4.033-1.182-4.033-3.928v-4.814
			h-1.563v-1.605h1.668v-3.083h1.753v3.083h3.357v1.563h-3.357v4.857c0,1.521,0.485,2.303,2.302,2.303
			C152.352,59.276,152.795,59.255,153.28,59.212z"/>
		<path fill="#0F265C" d="M164.243,50.554v10.348h-1.753l-0.084-1.52c-0.634,0.949-1.711,1.625-3.189,1.625
			c-2.26,0-3.653-1.436-3.653-3.695v-6.758h1.88v6.483c0,1.521,0.823,2.386,2.322,2.386c1.5,0,2.619-1.055,2.619-2.85v-6.02H164.243
			z"/>
		<path fill="#0F265C" d="M173.623,59.212v1.627c-0.507,0.042-1.014,0.063-1.352,0.063c-2.556,0-4.033-1.182-4.033-3.928v-4.814
			h-1.563v-1.605h1.669v-3.083h1.752v3.083h3.358v1.563h-3.358v4.857c0,1.521,0.486,2.303,2.303,2.303
			C172.693,59.276,173.137,59.255,173.623,59.212z"/>
	</g>
</g>
</svg>
